<svg width="118" height="118" viewBox="0 0 118 118" fill="none" xmlns="http://www.w3.org/2000/svg">
<g filter="url(#filter0_f_152_2)">
<circle cx="59" cy="59" r="47" fill="#FFFDE0"/>
</g>
<path d="M46.016 52.104C45.776 54.568 45.584 57.136 45.44 59.808C45.312 62.464 45.232 65.224 45.2 68.088C44.896 68.472 44.6 68.488 44.312 68.136C44.008 67.8 41.656 62.976 37.256 53.664C37.336 55.376 37.392 57.416 37.424 59.784C37.456 62.136 37.464 64.816 37.448 67.824C37.448 68.352 37.272 68.616 36.92 68.616C36.584 68.632 36.416 68.408 36.416 67.944C36.432 64.68 36.424 61.992 36.392 59.88C36.36 57.768 36.312 56.248 36.248 55.32C36.104 53.448 36.128 52.344 36.32 52.008C36.48 51.704 36.736 51.64 37.088 51.816C37.264 51.928 37.416 52.048 37.544 52.176C37.672 52.304 37.784 52.44 37.88 52.584C37.976 52.744 38.544 53.896 39.584 56.04C40.64 58.168 42.168 61.288 44.168 65.4C44.184 63.432 44.256 61.336 44.384 59.112C44.512 56.872 44.68 54.52 44.888 52.056C44.952 51.56 45.152 51.328 45.488 51.36C45.792 51.408 45.968 51.656 46.016 52.104ZM53.528 57.504C54.456 57.472 55.288 57.76 56.024 58.368C56.792 58.96 57.344 59.824 57.68 60.96C58.032 62.08 58.064 63.296 57.776 64.608C57.488 65.952 56.864 67.032 55.904 67.848C54.928 68.68 53.816 69.024 52.568 68.88C51.272 68.736 50.256 68.28 49.52 67.512C48.8 66.792 48.328 65.808 48.104 64.56C47.88 63.376 47.976 62.16 48.392 60.912C48.776 59.68 49.424 58.776 50.336 58.2C51.232 57.608 52.296 57.376 53.528 57.504ZM53.84 58.44C52.592 58.36 51.608 58.568 50.888 59.064C50.12 59.56 49.592 60.312 49.304 61.32C48.968 62.344 48.88 63.344 49.04 64.32C49.12 64.816 49.248 65.264 49.424 65.664C49.6 66.064 49.84 66.424 50.144 66.744C50.704 67.368 51.512 67.728 52.568 67.824C53.592 67.92 54.528 67.624 55.376 66.936C56.176 66.264 56.68 65.384 56.888 64.296C57.096 63.208 57.048 62.184 56.744 61.224C56.44 60.264 56.024 59.6 55.496 59.232C55.256 59.056 55 58.896 54.728 58.752C54.456 58.608 54.16 58.504 53.84 58.44ZM63.344 67.248C63.344 67.728 63.192 68.12 62.888 68.424C62.6 68.728 62.192 68.88 61.664 68.88C61.248 68.88 60.872 68.736 60.536 68.448C60.2 68.16 60.032 67.792 60.032 67.344C60.032 66.832 60.2 66.432 60.536 66.144C60.872 65.84 61.272 65.688 61.736 65.688C62.264 65.688 62.664 65.848 62.936 66.168C63.208 66.472 63.344 66.832 63.344 67.248ZM76.664 67.488L76.856 53.544L74.24 56.256C73.824 56.432 73.568 56.36 73.472 56.04C73.36 55.752 73.464 55.416 73.784 55.032C75.688 52.84 76.776 51.784 77.048 51.864C77.592 51.656 77.88 52.008 77.912 52.92L77.768 67.488L80.144 67.512C80.528 67.608 80.72 67.824 80.72 68.16C80.72 68.48 80.512 68.68 80.096 68.76L74.096 68.808C73.76 68.824 73.544 68.68 73.448 68.376C73.336 68.088 73.48 67.856 73.88 67.68L76.664 67.488Z" fill="black"/>
<defs>
<filter id="filter0_f_152_2" x="0" y="0" width="118" height="118" filterUnits="userSpaceOnUse" color-interpolation-filters="sRGB">
<feFlood flood-opacity="0" result="BackgroundImageFix"/>
<feBlend mode="normal" in="SourceGraphic" in2="BackgroundImageFix" result="shape"/>
<feGaussianBlur stdDeviation="6" result="effect1_foregroundBlur_152_2"/>
</filter>
</defs>
</svg>
