<svg width="118" height="118" viewBox="0 0 118 118" fill="none" xmlns="http://www.w3.org/2000/svg">
<g filter="url(#filter0_f_152_3)">
<circle cx="59" cy="59" r="47" fill="#FFFDE0"/>
</g>
<path d="M45.016 52.104C44.776 54.568 44.584 57.136 44.44 59.808C44.312 62.464 44.232 65.224 44.2 68.088C43.896 68.472 43.6 68.488 43.312 68.136C43.008 67.8 40.656 62.976 36.256 53.664C36.336 55.376 36.392 57.416 36.424 59.784C36.456 62.136 36.464 64.816 36.448 67.824C36.448 68.352 36.272 68.616 35.92 68.616C35.584 68.632 35.416 68.408 35.416 67.944C35.432 64.68 35.424 61.992 35.392 59.88C35.36 57.768 35.312 56.248 35.248 55.32C35.104 53.448 35.128 52.344 35.32 52.008C35.48 51.704 35.736 51.64 36.088 51.816C36.264 51.928 36.416 52.048 36.544 52.176C36.672 52.304 36.784 52.44 36.88 52.584C36.976 52.744 37.544 53.896 38.584 56.04C39.64 58.168 41.168 61.288 43.168 65.4C43.184 63.432 43.256 61.336 43.384 59.112C43.512 56.872 43.68 54.52 43.888 52.056C43.952 51.56 44.152 51.328 44.488 51.36C44.792 51.408 44.968 51.656 45.016 52.104ZM52.528 57.504C53.456 57.472 54.288 57.76 55.024 58.368C55.792 58.96 56.344 59.824 56.68 60.96C57.032 62.08 57.064 63.296 56.776 64.608C56.488 65.952 55.864 67.032 54.904 67.848C53.928 68.68 52.816 69.024 51.568 68.88C50.272 68.736 49.256 68.28 48.52 67.512C47.8 66.792 47.328 65.808 47.104 64.56C46.88 63.376 46.976 62.16 47.392 60.912C47.776 59.68 48.424 58.776 49.336 58.2C50.232 57.608 51.296 57.376 52.528 57.504ZM52.84 58.44C51.592 58.36 50.608 58.568 49.888 59.064C49.12 59.56 48.592 60.312 48.304 61.32C47.968 62.344 47.88 63.344 48.04 64.32C48.12 64.816 48.248 65.264 48.424 65.664C48.6 66.064 48.84 66.424 49.144 66.744C49.704 67.368 50.512 67.728 51.568 67.824C52.592 67.92 53.528 67.624 54.376 66.936C55.176 66.264 55.68 65.384 55.888 64.296C56.096 63.208 56.048 62.184 55.744 61.224C55.44 60.264 55.024 59.6 54.496 59.232C54.256 59.056 54 58.896 53.728 58.752C53.456 58.608 53.16 58.504 52.84 58.44ZM62.344 67.248C62.344 67.728 62.192 68.12 61.888 68.424C61.6 68.728 61.192 68.88 60.664 68.88C60.248 68.88 59.872 68.736 59.536 68.448C59.2 68.16 59.032 67.792 59.032 67.344C59.032 66.832 59.2 66.432 59.536 66.144C59.872 65.84 60.272 65.688 60.736 65.688C61.264 65.688 61.664 65.848 61.936 66.168C62.208 66.472 62.344 66.832 62.344 67.248ZM71.416 54.288C72.04 53.264 72.824 52.544 73.768 52.128C74.728 51.696 75.792 51.576 76.96 51.768C78.16 51.992 79.112 52.56 79.816 53.472C80.552 54.432 80.872 55.568 80.776 56.88C80.712 57.552 80.6 58.168 80.44 58.728C80.296 59.288 80.088 59.792 79.816 60.24C79.56 60.688 79.28 61.112 78.976 61.512C78.672 61.912 78.36 62.296 78.04 62.664C77.72 63.032 77.368 63.392 76.984 63.744C76.616 64.096 76.224 64.448 75.808 64.8C75.408 65.152 74.992 65.528 74.56 65.928C74.128 66.328 73.68 66.736 73.216 67.152L80.296 67.08C80.68 67.144 80.856 67.352 80.824 67.704C80.808 68.04 80.608 68.248 80.224 68.328C74.848 68.424 71.896 68.4 71.368 68.256C71.384 67.616 71.6 67.08 72.016 66.648C72.224 66.456 72.6 66.12 73.144 65.64C73.688 65.144 74.4 64.512 75.28 63.744C77.056 62.208 78.2 60.952 78.712 59.976C78.984 59.48 79.192 58.968 79.336 58.44C79.496 57.912 79.592 57.368 79.624 56.808C79.704 55.672 79.472 54.776 78.928 54.12C78.416 53.464 77.672 53.048 76.696 52.872C75.752 52.728 74.912 52.832 74.176 53.184C73.424 53.52 72.784 54.096 72.256 54.912C71.936 55.328 71.68 55.44 71.488 55.248C71.264 55.056 71.24 54.736 71.416 54.288Z" fill="black"/>
<defs>
<filter id="filter0_f_152_3" x="0" y="0" width="118" height="118" filterUnits="userSpaceOnUse" color-interpolation-filters="sRGB">
<feFlood flood-opacity="0" result="BackgroundImageFix"/>
<feBlend mode="normal" in="SourceGraphic" in2="BackgroundImageFix" result="shape"/>
<feGaussianBlur stdDeviation="6" result="effect1_foregroundBlur_152_3"/>
</filter>
</defs>
</svg>
