<svg width="118" height="118" viewBox="0 0 118 118" fill="none" xmlns="http://www.w3.org/2000/svg">
<g filter="url(#filter0_f_152_4)">
<circle cx="59" cy="59" r="47" fill="#FFFDE0"/>
</g>
<path d="M46.016 52.104C45.776 54.568 45.584 57.136 45.44 59.808C45.312 62.464 45.232 65.224 45.2 68.088C44.896 68.472 44.6 68.488 44.312 68.136C44.008 67.8 41.656 62.976 37.256 53.664C37.336 55.376 37.392 57.416 37.424 59.784C37.456 62.136 37.464 64.816 37.448 67.824C37.448 68.352 37.272 68.616 36.92 68.616C36.584 68.632 36.416 68.408 36.416 67.944C36.432 64.68 36.424 61.992 36.392 59.88C36.36 57.768 36.312 56.248 36.248 55.32C36.104 53.448 36.128 52.344 36.32 52.008C36.48 51.704 36.736 51.64 37.088 51.816C37.264 51.928 37.416 52.048 37.544 52.176C37.672 52.304 37.784 52.44 37.88 52.584C37.976 52.744 38.544 53.896 39.584 56.04C40.64 58.168 42.168 61.288 44.168 65.4C44.184 63.432 44.256 61.336 44.384 59.112C44.512 56.872 44.68 54.52 44.888 52.056C44.952 51.56 45.152 51.328 45.488 51.36C45.792 51.408 45.968 51.656 46.016 52.104ZM53.528 57.504C54.456 57.472 55.288 57.76 56.024 58.368C56.792 58.96 57.344 59.824 57.68 60.96C58.032 62.08 58.064 63.296 57.776 64.608C57.488 65.952 56.864 67.032 55.904 67.848C54.928 68.68 53.816 69.024 52.568 68.88C51.272 68.736 50.256 68.28 49.52 67.512C48.8 66.792 48.328 65.808 48.104 64.56C47.88 63.376 47.976 62.16 48.392 60.912C48.776 59.68 49.424 58.776 50.336 58.2C51.232 57.608 52.296 57.376 53.528 57.504ZM53.84 58.44C52.592 58.36 51.608 58.568 50.888 59.064C50.12 59.56 49.592 60.312 49.304 61.32C48.968 62.344 48.88 63.344 49.04 64.32C49.12 64.816 49.248 65.264 49.424 65.664C49.6 66.064 49.84 66.424 50.144 66.744C50.704 67.368 51.512 67.728 52.568 67.824C53.592 67.92 54.528 67.624 55.376 66.936C56.176 66.264 56.68 65.384 56.888 64.296C57.096 63.208 57.048 62.184 56.744 61.224C56.44 60.264 56.024 59.6 55.496 59.232C55.256 59.056 55 58.896 54.728 58.752C54.456 58.608 54.16 58.504 53.84 58.44ZM63.344 67.248C63.344 67.728 63.192 68.12 62.888 68.424C62.6 68.728 62.192 68.88 61.664 68.88C61.248 68.88 60.872 68.736 60.536 68.448C60.2 68.16 60.032 67.792 60.032 67.344C60.032 66.832 60.2 66.432 60.536 66.144C60.872 65.84 61.272 65.688 61.736 65.688C62.264 65.688 62.664 65.848 62.936 66.168C63.208 66.472 63.344 66.832 63.344 67.248ZM73.16 53.88C73.512 53.208 74.008 52.672 74.648 52.272C75.32 51.856 76.112 51.616 77.024 51.552C77.936 51.504 78.792 51.648 79.592 51.984C80.392 52.32 80.976 52.968 81.344 53.928C81.664 54.872 81.632 55.904 81.248 57.024C80.816 58.144 80.064 58.904 78.992 59.304C79.536 59.512 80 59.8 80.384 60.168C80.768 60.52 81.088 60.952 81.344 61.464C81.824 62.504 81.912 63.632 81.608 64.848C81.32 66.08 80.696 67.04 79.736 67.728C78.792 68.416 77.72 68.72 76.52 68.64C75.352 68.592 74.344 68.208 73.496 67.488C72.696 66.752 72.256 65.688 72.176 64.296C72.176 63.752 72.328 63.496 72.632 63.528C72.936 63.544 73.128 63.776 73.208 64.224C73.256 65.296 73.584 66.104 74.192 66.648C74.768 67.208 75.56 67.512 76.568 67.56C77.592 67.608 78.456 67.36 79.16 66.816C79.528 66.544 79.84 66.216 80.096 65.832C80.352 65.432 80.536 64.96 80.648 64.416C80.92 63.36 80.696 62.376 79.976 61.464C79.272 60.568 78.304 60.144 77.072 60.192C75.856 60.24 75.312 59.992 75.44 59.448C75.584 59.16 76.008 58.976 76.712 58.896C77.368 58.832 78.072 58.624 78.824 58.272C79.56 57.904 80.056 57.312 80.312 56.496C80.552 55.68 80.568 54.944 80.36 54.288C80.104 53.6 79.688 53.152 79.112 52.944C78.536 52.736 77.864 52.656 77.096 52.704C76.328 52.752 75.688 52.936 75.176 53.256C74.92 53.416 74.696 53.6 74.504 53.808C74.312 54 74.152 54.208 74.024 54.432C73.656 54.768 73.392 54.864 73.232 54.72C73.04 54.56 73.016 54.28 73.16 53.88Z" fill="black"/>
<defs>
<filter id="filter0_f_152_4" x="0" y="0" width="118" height="118" filterUnits="userSpaceOnUse" color-interpolation-filters="sRGB">
<feFlood flood-opacity="0" result="BackgroundImageFix"/>
<feBlend mode="normal" in="SourceGraphic" in2="BackgroundImageFix" result="shape"/>
<feGaussianBlur stdDeviation="6" result="effect1_foregroundBlur_152_4"/>
</filter>
</defs>
</svg>
